<?xml version="1.0" standalone="no"?>
<!DOCTYPE svg PUBLIC "-//W3C//DTD SVG 20010904//EN"
 "http://www.w3.org/TR/2001/REC-SVG-20010904/DTD/svg10.dtd">
<svg version="1.0" xmlns="http://www.w3.org/2000/svg"
 width="300.000000pt" height="169.000000pt" viewBox="0 0 300.000000 169.000000"
 preserveAspectRatio="xMidYMid meet">
<metadata>
Created by potrace 1.10, written by Peter Selinger 2001-2011
</metadata>
<g transform="translate(0.000000,169.000000) scale(0.100000,-0.100000)"
fill="#000000" stroke="none">
<path d="M1427 1493 c-42 -87 -77 -160 -77 -163 0 -9 305 -2 306 7 1 9 -143
313 -148 313 -2 0 -39 -71 -81 -157z m133 4 c77 -157 81 -147 -56 -147 -63 0
-114 3 -114 8 -1 7 113 242 117 242 1 0 25 -46 53 -103z"/>
<path d="M735 1409 c5 -8 52 -80 105 -160 l95 -145 113 83 c67 48 108 85 100
88 -7 3 -96 34 -198 69 -102 35 -194 68 -204 72 -15 6 -17 4 -11 -7z m105 -54
c37 -9 260 -90 260 -95 -1 -6 -138 -110 -154 -116 -6 -2 -19 8 -28 23 -9 16
-37 60 -62 98 -72 111 -71 109 -50 101 11 -4 26 -9 34 -11z"/>
<path d="M2258 1415 c-6 -6 -304 -112 -361 -128 -20 -6 -36 -14 -35 -18 5 -13
210 -160 218 -157 8 3 200 294 200 304 0 6 -16 5 -22 -1z m-64 -92 c-15 -27
-43 -69 -61 -95 -18 -26 -33 -52 -33 -57 0 -5 -6 -14 -14 -20 -10 -8 -30 2
-90 45 -42 31 -76 60 -76 65 0 4 21 15 48 23 26 8 71 24 100 35 29 11 56 20
60 22 18 5 29 8 57 17 17 6 32 11 33 11 2 1 -9 -20 -24 -46z"/>
<path d="M1365 1240 c-229 -46 -405 -212 -405 -382 0 -44 -6 -65 -25 -94 -36
-53 -31 -124 9 -124 6 0 5 5 -2 12 -38 38 22 148 80 148 16 0 16 -3 1 -46 -17
-50 -28 -55 -14 -6 10 35 9 37 -20 22 -17 -10 -18 -13 -5 -44 12 -29 12 -41
-2 -90 -13 -46 -19 -56 -35 -54 -15 2 -41 -31 -118 -149 -54 -84 -96 -153 -93
-153 3 0 94 31 202 68 108 38 203 71 211 73 8 3 -22 31 -72 67 -67 49 -93 62
-122 62 -20 0 -34 4 -31 9 9 14 133 11 162 -3 23 -12 28 -12 45 2 23 20 24 26
4 18 -27 -10 -47 5 -41 30 3 12 2 25 -4 29 -5 3 -12 -6 -16 -20 -5 -21 -12
-25 -44 -25 l-38 0 25 83 c14 45 31 97 39 115 l14 34 -33 -7 c-17 -4 -41 -9
-52 -12 -16 -4 -18 -3 -7 8 6 7 33 16 60 20 l47 8 -52 -3 c-48 -3 -53 -1 -53
18 1 46 22 108 54 158 32 50 120 128 145 128 6 0 11 4 11 10 0 5 12 13 28 16
15 4 39 13 53 20 27 14 52 20 127 33 77 14 272 2 312 -19 8 -4 35 -11 60 -14
l45 -7 -28 16 c-56 32 -176 55 -281 54 -56 -1 -119 -5 -141 -9z m-335 -747
c38 -27 68 -52 67 -57 -3 -8 -269 -106 -289 -106 -16 0 -7 21 42 95 55 82 84
115 101 115 6 0 42 -21 79 -47z"/>
<path d="M2315 1180 c-70 -10 -116 -32 -165 -76 -56 -51 -87 -101 -105 -172
-26 -97 -7 -151 60 -166 l29 -7 -19 21 c-44 49 -12 185 64 272 32 37 91 70
145 82 25 6 28 5 21 -11 -27 -65 -165 -520 -165 -543 0 -36 22 -54 56 -46 18
5 24 3 18 -5 -4 -8 -3 -9 5 -5 6 4 9 11 6 16 -3 5 3 14 14 19 26 14 34 14 25
-1 -5 -7 -3 -8 5 -4 7 5 10 11 7 14 -7 7 13 32 26 32 5 0 6 -6 2 -12 -5 -9 -2
-8 9 1 10 8 15 16 12 19 -7 8 66 82 75 77 4 -3 14 3 21 13 13 15 12 16 -3 3
-10 -7 -18 -11 -18 -7 0 11 61 91 70 91 5 0 12 4 17 9 5 6 2 6 -6 1 -10 -6
-13 -4 -8 6 3 8 22 50 41 94 19 44 45 117 57 162 21 80 22 84 4 103 -24 26
-35 25 -35 -4 0 -42 -49 -199 -89 -281 -21 -44 -59 -108 -85 -142 -45 -59
-144 -149 -154 -139 -7 8 33 146 102 351 76 226 76 225 88 225 5 0 6 -6 2 -12
-5 -9 -2 -9 9 1 18 15 23 26 7 16 -5 -3 -10 -1 -10 4 0 12 -58 12 -135 1z m85
-22 c0 -4 -27 -84 -58 -176 -15 -45 -31 -79 -35 -75 -5 4 -5 0 -2 -8 3 -9 -8
-58 -25 -109 -16 -52 -30 -100 -30 -107 0 -7 -4 -13 -8 -13 -12 0 -14 -78 -2
-85 17 -10 11 -25 -9 -25 -28 0 -30 26 -8 100 10 36 23 85 29 110 14 68 39
143 52 160 7 8 18 38 25 65 6 28 16 51 21 53 5 2 7 9 4 17 -3 8 -1 22 4 31 6
11 7 27 1 41 -7 20 -5 23 16 23 14 0 25 -1 25 -2z m-190 -48 c0 -5 -5 -10 -11
-10 -5 0 -7 5 -4 10 3 6 8 10 11 10 2 0 4 -4 4 -10z m-35 -29 c-3 -6 -11 -11
-16 -11 -5 0 -4 6 3 14 14 16 24 13 13 -3z m-62 -91 c-25 -47 -38 -87 -41
-125 -6 -72 -22 -61 -19 13 2 41 6 56 15 54 8 -1 10 2 7 8 -7 12 54 120 67
120 4 0 -9 -31 -29 -70z"/>
<path d="M1694 1154 c-125 -30 -234 -125 -234 -203 0 -38 14 -61 37 -61 7 0
10 6 7 14 -3 8 2 31 11 50 47 99 230 184 348 162 43 -8 87 -50 87 -84 0 -84
-65 -169 -169 -221 -34 -17 -61 -28 -61 -24 0 5 18 63 41 130 42 127 66 162
113 164 13 1 8 4 -14 10 -40 10 -114 3 -150 -15 -14 -7 -42 -21 -63 -31 -21
-10 -56 -38 -77 -62 -31 -33 -40 -50 -38 -75 l1 -33 4 33 c2 18 9 30 14 27 5
-4 9 0 9 8 0 19 79 97 98 97 4 0 24 9 44 20 20 10 60 22 90 26 48 7 52 6 40
-9 -8 -9 -32 -17 -54 -19 l-40 -3 -45 -145 c-25 -80 -48 -149 -53 -153 -4 -4
-17 -9 -30 -10 -12 -1 -26 -11 -30 -22 -17 -42 -102 -107 -118 -89 -4 4 -2 8
3 10 34 13 76 48 90 74 15 28 15 34 1 55 -29 44 -90 45 -156 3 -19 -12 -38
-22 -42 -23 -3 0 -10 -4 -15 -9 -5 -5 -3 -6 5 -2 8 5 12 -1 12 -21 1 -27 2
-26 20 12 11 22 19 37 20 32 0 -4 10 -1 23 7 33 21 83 29 106 16 23 -12 28
-49 11 -81 -11 -20 -68 -54 -77 -45 -6 6 16 76 30 94 7 8 5 12 -6 12 -16 0
-30 -26 -21 -41 3 -5 0 -9 -5 -9 -6 0 -11 -9 -11 -19 0 -11 -4 -23 -10 -26
-13 -8 -13 -5 5 45 8 24 13 45 10 48 -9 9 -56 -29 -65 -53 -12 -32 -27 -39
-35 -15 -6 20 -25 28 -25 11 0 -5 -3 -16 -6 -24 -3 -8 2 -17 11 -21 10 -4 14
-2 9 5 -4 7 0 9 14 5 23 -8 67 27 57 44 -3 5 0 12 6 15 7 5 9 -3 6 -24 -6 -36
5 -88 18 -83 4 2 12 -3 17 -12 5 -9 14 -14 19 -11 5 4 7 11 3 16 -3 6 11 1 32
-10 21 -12 46 -21 54 -20 9 0 4 6 -10 12 -52 25 -53 28 -20 52 18 13 38 21 45
19 7 -3 16 -1 20 5 3 6 0 9 -8 5 -8 -3 -18 -1 -22 5 -5 10 32 31 54 31 5 0 2
-19 -6 -42 -8 -24 -16 -63 -16 -88 -2 -41 0 -45 23 -48 24 -3 26 2 48 98 l24
101 74 36 c95 46 161 104 190 168 32 68 31 115 -3 156 -56 66 -143 83 -269 53z
m116 -4 c11 -7 6 -8 -17 -4 -20 4 -33 2 -33 -4 0 -5 -12 -12 -27 -14 -43 -8
-57 -12 -64 -21 -3 -4 -16 -9 -27 -10 -12 -1 -22 -5 -22 -9 0 -4 -5 -8 -10 -8
-19 0 -132 -122 -124 -134 2 -3 -1 -2 -6 2 -12 10 1 39 43 94 32 41 102 80
187 102 67 18 81 19 100 6z m-34 -126 c-3 -9 -6 -20 -6 -25 0 -6 -4 -7 -10 -4
-6 3 -10 -5 -10 -19 0 -14 -4 -28 -10 -31 -5 -3 -10 -19 -10 -35 0 -33 -9 -62
-19 -56 -3 2 -6 -15 -5 -37 0 -23 -4 -48 -10 -56 -6 -7 -23 -57 -37 -110 -19
-69 -29 -91 -34 -78 -4 10 -2 44 6 75 7 32 14 64 14 72 1 8 9 32 18 52 9 21
17 41 17 46 0 7 13 48 65 210 3 6 12 12 21 12 11 0 14 -5 10 -16z"/>
<path d="M1838 1033 c-16 -18 -58 -129 -58 -152 0 -7 5 -9 10 -6 6 4 8 10 5
15 -3 5 0 20 7 32 6 13 13 30 15 40 1 9 12 32 24 52 23 39 21 47 -3 19z"/>
<path d="M2000 980 c0 -35 -8 -56 -35 -94 -19 -27 -35 -47 -35 -43 0 3 -14 -7
-31 -22 -30 -28 -145 -91 -166 -91 -6 0 -13 -13 -15 -30 -3 -16 -1 -30 3 -30
4 0 12 14 18 30 5 17 15 30 20 30 6 0 35 12 65 26 65 30 156 115 175 161 7 18
17 30 22 27 14 -8 10 28 -6 56 -14 24 -14 24 -15 -20z"/>
<path d="M800 954 c-25 -8 -117 -33 -205 -55 -88 -23 -167 -43 -175 -46 -25
-9 121 -44 183 -44 67 1 78 -14 12 -15 -59 -1 -85 -24 -85 -75 0 -30 7 -46 35
-73 39 -40 44 -62 15 -71 -26 -8 -60 11 -60 35 0 11 -4 20 -10 20 -19 0 -11
-59 9 -70 30 -15 72 -12 88 8 8 9 11 11 7 3 -5 -9 -3 -12 4 -7 21 13 13 47
-18 82 -39 45 -47 79 -25 104 10 11 22 17 28 13 6 -3 7 -1 3 5 -5 8 1 12 17
12 20 0 24 -4 20 -19 -3 -10 0 -22 6 -25 7 -5 11 2 11 16 0 13 4 30 10 38 6 9
5 17 -3 22 -8 5 -4 8 11 8 12 0 22 5 22 11 0 7 -8 9 -22 4 -45 -16 -149 -8
-155 11 -3 10 69 31 285 79 21 5 22 2 22 -50 0 -55 0 -55 -27 -49 -22 5 -20 2
12 -15 21 -12 41 -21 42 -21 2 0 3 41 3 90 0 50 -3 90 -7 89 -5 -1 -28 -7 -53
-15z"/>
<path d="M2160 848 c0 -119 0 -119 23 -112 31 9 34 14 14 25 -14 8 -17 24 -17
91 l0 80 45 -6 c63 -10 56 8 -10 26 l-55 15 0 -119z"/>
<path d="M2360 886 c0 -14 -5 -28 -10 -31 -6 -4 -8 -10 -6 -14 3 -4 -4 -22
-15 -40 -18 -30 -18 -32 -2 -27 10 3 39 10 65 17 51 12 77 41 30 33 -15 -3
-35 -7 -44 -10 -14 -4 -18 0 -18 19 0 34 20 48 56 39 38 -10 54 -9 55 3 0 8
-77 34 -103 35 -5 0 -8 -11 -8 -24z"/>
<path d="M1480 866 c0 -10 28 -13 41 -5 10 6 7 9 -13 9 -16 0 -28 -2 -28 -4z"/>
<path d="M1758 846 c-3 -14 -2 -26 2 -26 12 0 19 26 10 39 -5 9 -9 4 -12 -13z"/>
<path d="M1340 856 c0 -9 30 -14 35 -6 4 6 -3 10 -14 10 -12 0 -21 -2 -21 -4z"/>
<path d="M2550 845 c-13 -16 -8 -18 27 -9 13 4 20 10 17 15 -8 14 -30 11 -44
-6z"/>
<path d="M735 818 c-35 -13 -59 -34 -46 -42 4 -3 16 3 26 14 10 11 24 20 31
20 7 0 16 5 19 10 3 6 5 10 3 9 -2 0 -16 -5 -33 -11z"/>
<path d="M1338 823 c7 -3 16 -2 19 1 4 3 -2 6 -13 5 -11 0 -14 -3 -6 -6z"/>
<path d="M1403 813 c-25 -8 -43 -21 -43 -30 0 -11 7 -9 32 8 21 15 51 24 88
27 53 4 58 2 83 -28 17 -19 27 -26 27 -16 0 8 -13 24 -29 35 -35 25 -96 27
-158 4z"/>
<path d="M1076 788 c-8 -13 -20 -43 -27 -68 -7 -25 -16 -49 -21 -54 -8 -10 18
-46 34 -46 4 0 8 7 8 15 0 27 60 84 95 91 59 11 101 -19 74 -52 -9 -12 -15
-12 -27 -2 -13 11 -15 10 -9 -12 4 -16 1 -30 -10 -42 -21 -23 -40 -24 -22 0
12 15 12 16 -2 4 -9 -7 -23 -10 -31 -7 -8 3 -21 -1 -28 -10 -7 -8 -11 -15 -9
-16 52 -9 70 -4 95 22 17 18 38 29 54 29 23 0 27 -4 28 -30 0 -16 -4 -30 -9
-30 -5 0 -9 11 -9 25 0 33 -8 32 -51 -8 -20 -17 -44 -37 -54 -42 -15 -9 -7
-16 51 -42 107 -50 185 -67 304 -66 177 0 328 55 430 155 71 70 123 167 95
176 -5 2 -16 -16 -25 -40 -21 -60 -128 -166 -205 -202 -168 -81 -380 -88 -552
-19 -74 30 -77 36 -30 72 16 13 20 12 33 -7 18 -26 53 -29 60 -4 3 9 10 25 15
35 7 13 5 17 -6 17 -15 0 -19 -10 -16 -42 1 -10 -4 -18 -12 -18 -22 0 -9 59
49 225 6 19 6 19 -9 -1 -9 -11 -24 -47 -35 -80 -16 -46 -25 -60 -43 -62 -22
-4 -22 -3 -5 23 39 59 77 128 73 132 -3 2 -19 -21 -36 -52 -32 -57 -43 -68
-34 -37 4 16 -2 18 -56 18 -57 -1 -62 -3 -107 -46 l-46 -45 7 40 c4 22 10 44
13 50 10 14 30 75 26 75 -2 0 -10 -10 -18 -22z"/>
<path d="M728 784 c-15 -8 -32 -23 -38 -34 -13 -24 -13 -67 0 -75 6 -3 10 5
10 18 0 26 68 97 93 97 26 0 57 -31 57 -58 0 -47 -20 -102 -49 -135 -25 -27
-31 -29 -45 -18 -19 16 -23 101 -4 101 6 0 8 3 5 6 -3 4 5 15 18 26 14 11 23
24 19 29 -3 6 5 7 20 3 26 -6 37 8 16 21 -5 3 -10 2 -10 -4 0 -7 -9 -7 -27 0
-15 6 -25 7 -21 4 3 -3 -5 -17 -17 -29 -59 -59 -48 -186 15 -186 22 0 93 67
85 80 -3 5 -2 10 2 10 5 0 10 26 11 59 3 53 1 61 -24 80 -31 24 -77 27 -116 5z
m62 -48 c0 -2 -8 -10 -17 -17 -16 -13 -17 -12 -4 4 13 16 21 21 21 13z"/>
<path d="M1272 770 c-7 -11 -8 -20 -3 -20 9 0 24 30 18 36 -1 2 -8 -6 -15 -16z"/>
<path d="M1513 768 c3 -9 0 -21 -6 -27 -6 -6 -7 -11 -2 -11 4 0 0 -9 -10 -20
-27 -29 -9 -38 20 -10 28 26 31 70 6 78 -9 3 -12 0 -8 -10z"/>
<path d="M1145 702 c-39 -24 -58 -48 -50 -62 4 -7 19 0 40 19 42 37 74 48 87
30 7 -11 8 -9 6 6 -4 27 -45 30 -83 7z m-17 -36 c-7 -8 -15 -12 -17 -11 -5 6
10 25 20 25 5 0 4 -6 -3 -14z"/>
<path d="M1157 656 c-9 -7 -17 -19 -17 -27 0 -12 2 -12 9 0 5 8 16 11 30 6 23
-7 28 7 8 23 -8 7 -17 7 -30 -2z"/>
<path d="M1400 651 c0 -12 5 -21 10 -21 6 0 10 6 10 14 0 8 -4 18 -10 21 -5 3
-10 -3 -10 -14z"/>
<path d="M1705 635 c-3 -16 -9 -37 -12 -45 -7 -22 -13 -73 -8 -68 9 9 36 121
32 132 -3 6 -8 -2 -12 -19z"/>
<path d="M1396 605 c-3 -9 -6 -24 -5 -33 0 -9 5 -4 10 12 9 32 6 48 -5 21z"/>
<path d="M1418 595 c-3 -14 -2 -28 3 -30 12 -8 22 36 11 47 -6 6 -11 0 -14
-17z"/>
<path d="M1489 602 c-1 -4 -1 -11 0 -16 1 -5 -4 -4 -12 2 -8 7 -16 9 -20 6 -9
-9 4 -35 15 -28 5 3 18 -3 29 -15 11 -12 27 -21 37 -21 11 0 5 7 -15 20 -38
23 -41 30 -12 30 11 0 17 -4 14 -10 -4 -6 5 -10 19 -10 14 0 26 2 26 4 0 8
-80 46 -81 38z"/>
<path d="M819 573 c-13 -16 -12 -17 4 -4 9 7 17 15 17 17 0 8 -8 3 -21 -13z"/>
<path d="M1968 512 c-59 -42 -107 -79 -107 -82 -1 -7 411 -152 416 -146 2 2
-37 65 -87 141 -51 76 -94 144 -97 151 -3 8 -8 14 -12 13 -3 0 -54 -35 -113
-77z m189 -80 c35 -53 61 -97 59 -100 -4 -4 -267 82 -291 96 -12 6 2 22 67 70
72 54 84 60 93 46 6 -9 38 -59 72 -112z"/>
<path d="M1400 546 c0 -2 7 -7 16 -10 8 -3 12 -2 9 4 -6 10 -25 14 -25 6z"/>
<path d="M1638 503 c6 -2 18 -2 25 0 6 3 1 5 -13 5 -14 0 -19 -2 -12 -5z"/>
<path d="M1350 366 c0 -2 36 -77 80 -167 72 -147 80 -160 89 -137 5 14 41 89
80 167 l71 141 -160 0 c-88 0 -160 -2 -160 -4z m270 -40 c-4 -13 -32 -70 -61
-127 l-52 -104 -58 115 c-32 63 -58 118 -58 122 -1 4 47 9 107 11 59 1 113 4
119 5 9 1 10 -5 3 -22z"/>
</g>
</svg>
